<svg width="16" height="16" viewBox="0 0 16 16" fill="none" xmlns="http://www.w3.org/2000/svg">
<g clipPath="url(#clip0_2121_290195)">
<path d="M3.33325 9.99967H2.66659C2.31296 9.99967 1.97382 9.8592 1.72378 9.60915C1.47373 9.3591 1.33325 9.01996 1.33325 8.66634V2.66634C1.33325 2.31272 1.47373 1.97358 1.72378 1.72353C1.97382 1.47348 2.31296 1.33301 2.66659 1.33301H8.66659C9.02021 1.33301 9.35935 1.47348 9.60939 1.72353C9.85944 1.97358 9.99992 2.31272 9.99992 2.66634V3.33301M7.33325 5.99967H13.3333C14.0696 5.99967 14.6666 6.59663 14.6666 7.33301V13.333C14.6666 14.0694 14.0696 14.6663 13.3333 14.6663H7.33325C6.59687 14.6663 5.99992 14.0694 5.99992 13.333V7.33301C5.99992 6.59663 6.59687 5.99967 7.33325 5.99967Z" stroke="#D0D5DD" strokeWidth="1.5" strokeLinecap="round" strokeLinejoin="round"/>
</g>
<defs>
<clipPath id="clip0_2121_290195">
<rect width="16" height="16" fill="white"/>
</clipPath>
</defs>
</svg>
