<svg width="39" height="38" viewBox="0 0 39 38" fill="none" xmlns="http://www.w3.org/2000/svg">
<g filter="url(#filter0_dd_5061_277465)">
<rect x="3" y="2" width="32.2254" height="32" rx="1.536" fill="#531785"/>
<path d="M9.15138 15.1519V16.3598H11.7351V17.4721H9.15138V19.64H7.96002L7.96002 14.04H12.0829V15.1519H9.15138Z" fill="white"/>
<path d="M17.6071 19.0763C17.4554 19.1963 17.2906 19.2988 17.1159 19.3819C16.9298 19.4694 16.7337 19.5338 16.5319 19.5739C16.2976 19.62 16.0591 19.6421 15.8203 19.6398C15.4407 19.6433 15.0643 19.5696 14.714 19.4232C14.3841 19.2857 14.0844 19.0847 13.8321 18.8315C13.5821 18.5775 13.3849 18.2764 13.2519 17.9457C13.1115 17.5992 13.0405 17.2286 13.043 16.8548V16.8394C13.0402 16.4665 13.1112 16.0967 13.2519 15.7514C13.3866 15.4205 13.5836 15.1186 13.8321 14.8621C14.085 14.603 14.3876 14.3978 14.7217 14.2585C15.085 14.1088 15.475 14.0345 15.8679 14.0403C16.1001 14.0385 16.3319 14.0592 16.5601 14.1021C16.7549 14.1394 16.9455 14.1964 17.1287 14.2723C17.2952 14.3426 17.4534 14.4308 17.6007 14.5353C17.7439 14.6376 17.8785 14.7515 18.003 14.8758L17.2439 15.7498C17.0501 15.5716 16.8327 15.4208 16.5979 15.3018C16.3675 15.1911 16.1145 15.1356 15.859 15.1395C15.6418 15.1375 15.4268 15.1824 15.2286 15.271C15.0387 15.3561 14.8688 15.4799 14.7297 15.6346C14.5889 15.792 14.4787 15.9743 14.4049 16.1722C14.3265 16.3812 14.2871 16.6028 14.2887 16.826V16.8413C14.2874 17.0658 14.3267 17.2886 14.4049 17.499C14.4776 17.6975 14.586 17.881 14.7249 18.0404C14.8666 18.2007 15.0411 18.3286 15.2367 18.4153C15.4322 18.5021 15.6441 18.5457 15.858 18.5432C16.1676 18.5432 16.4293 18.4864 16.6433 18.3729C16.8753 18.2467 17.0898 18.0907 17.2814 17.9089L18.0395 18.6747C17.9057 18.8193 17.7612 18.9535 17.6071 19.0763Z" fill="white"/>
<path d="M23.2385 19.64V15.9839L21.7143 18.3758H21.6823L20.1739 16.008V19.64H18.9995V14.04H20.2833L21.7067 16.4081L23.13 14.04H24.4142V19.64H23.2385Z" fill="white"/>
<path d="M29.8264 18.7758C29.7306 18.9684 29.5899 19.1333 29.4171 19.2556C29.2225 19.3912 29.0056 19.4889 28.7771 19.5438C28.5045 19.6105 28.2252 19.6427 27.9451 19.6398H25.3742V14.04H27.884C28.4397 14.04 28.8759 14.1707 29.1924 14.4321C29.509 14.6935 29.6674 15.0455 29.6676 15.4881V15.5056C29.6699 15.6492 29.6503 15.7922 29.6097 15.9295C29.5737 16.0467 29.522 16.1581 29.4561 16.2604C29.3935 16.3575 29.3181 16.445 29.2321 16.5205C29.1484 16.5948 29.057 16.6591 28.9595 16.7125C29.2724 16.8354 29.5188 17.002 29.6987 17.2125C29.8785 17.423 29.9683 17.7144 29.9681 18.0868V18.1027C29.9736 18.3355 29.925 18.5664 29.8264 18.7758ZM28.4916 15.6959C28.4916 15.5093 28.4247 15.3666 28.2907 15.268C28.1567 15.1694 27.9633 15.1201 27.7105 15.1201H26.5345V16.3038H27.6321C27.8952 16.3038 28.104 16.2571 28.2587 16.1638C28.4134 16.0705 28.4907 15.9198 28.4907 15.7118L28.4916 15.6959ZM28.7934 17.9359C28.7962 17.8498 28.7786 17.7642 28.7422 17.6867C28.7058 17.6092 28.6516 17.5421 28.5844 17.4911C28.4451 17.3819 28.2211 17.3268 27.9124 17.3257H26.5364V18.5577H27.9521C28.2152 18.5577 28.4215 18.5084 28.571 18.4098C28.7206 18.3112 28.7952 18.1578 28.795 17.9498L28.7934 17.9359Z" fill="white"/>
<path d="M30.2654 23.168V25.688L7.96002 25.688V24.3626C7.95998 24.2057 7.99273 24.0503 8.05641 23.9054C8.12009 23.7604 8.21345 23.6287 8.33115 23.5178C8.44885 23.4068 8.58859 23.3188 8.74238 23.2588C8.89617 23.1988 9.06101 23.1679 9.22746 23.168L30.2654 23.168Z" fill="#FAB613"/>
<path d="M7.96002 26.52L30.2654 26.52V29.04L9.22746 29.04C9.06098 29.04 8.89612 29.0091 8.74231 28.9491C8.58849 28.889 8.44874 28.801 8.33104 28.69C8.21333 28.5791 8.11998 28.4473 8.05632 28.3023C7.99266 28.1574 7.95994 28.002 7.96002 27.845V26.52Z" fill="#FAB613"/>
</g>
<defs>
<filter id="filter0_dd_5061_277465" x="0" y="0" width="38.2253" height="38" filterUnits="userSpaceOnUse" color-interpolation-filters="sRGB">
<feFlood flood-opacity="0" result="BackgroundImageFix"/>
<feColorMatrix in="SourceAlpha" type="matrix" values="0 0 0 0 0 0 0 0 0 0 0 0 0 0 0 0 0 0 127 0" result="hardAlpha"/>
<feOffset dy="1"/>
<feGaussianBlur stdDeviation="1"/>
<feColorMatrix type="matrix" values="0 0 0 0 0.0627451 0 0 0 0 0.0941176 0 0 0 0 0.156863 0 0 0 0.06 0"/>
<feBlend mode="normal" in2="BackgroundImageFix" result="effect1_dropShadow_5061_277465"/>
<feColorMatrix in="SourceAlpha" type="matrix" values="0 0 0 0 0 0 0 0 0 0 0 0 0 0 0 0 0 0 127 0" result="hardAlpha"/>
<feOffset dy="1"/>
<feGaussianBlur stdDeviation="1.5"/>
<feColorMatrix type="matrix" values="0 0 0 0 0.0627451 0 0 0 0 0.0941176 0 0 0 0 0.156863 0 0 0 0.1 0"/>
<feBlend mode="normal" in2="effect1_dropShadow_5061_277465" result="effect2_dropShadow_5061_277465"/>
<feBlend mode="normal" in="SourceGraphic" in2="effect2_dropShadow_5061_277465" result="shape"/>
</filter>
</defs>
</svg>
