<svg width="29" height="27" viewBox="0 0 29 27" fill="none" xmlns="http://www.w3.org/2000/svg">
<path d="M18.2685 3.11161L18.2685 3.11152C17.3724 1.56754 16.1196 0.663086 14.7206 0.663086C13.3215 0.663086 12.068 1.56746 11.1719 3.11148C11.1719 3.1115 11.1719 3.11151 11.1719 3.11152L1.51983 19.7369L1.51933 19.7377C0.605886 21.3257 0.48849 23.0136 1.25989 24.3504L1.25992 24.3504C1.99581 25.6251 3.42678 26.3343 5.14513 26.3376H5.1456H24.2955H24.296C26.0159 26.3343 27.4497 25.628 28.1835 24.3552C28.9513 23.0258 28.8318 21.3441 27.9202 19.759L27.9198 19.7582L18.2685 3.11161ZM27.0701 23.7118L27.07 23.7118C26.5914 24.5411 25.5992 25.0486 24.2935 25.0509H5.14682C3.8469 25.0486 2.85561 24.5395 2.37425 23.7071C1.86012 22.8161 1.92714 21.6109 2.63383 20.3807C2.63392 20.3806 2.634 20.3804 2.63409 20.3803L12.2848 3.75745L12.2848 3.75739C12.9856 2.54947 13.8597 1.94979 14.7206 1.94979C15.5814 1.94979 16.4555 2.54946 17.1554 3.75728L17.1555 3.75733L26.8063 20.4008C26.8063 20.4009 26.8063 20.4009 26.8064 20.4009C27.5127 21.6293 27.58 22.8289 27.0701 23.7118Z" fill="#027A48" stroke="#027A48" strokeWidth="0.5"/>
<path d="M14.7205 16.8969C14.8911 16.8969 15.0548 16.8291 15.1754 16.7085C15.2961 16.5878 15.3639 16.4242 15.3639 16.2535V8.38652C15.3639 8.21589 15.2961 8.05225 15.1754 7.9316C15.0548 7.81094 14.8911 7.74316 14.7205 7.74316C14.5499 7.74316 14.3862 7.81095 14.2656 7.9316C14.1449 8.05225 14.0771 8.21589 14.0771 8.38652V16.2535C14.0771 16.4242 14.1449 16.5878 14.2656 16.7085C14.3862 16.8291 14.5499 16.8969 14.7205 16.8969Z" fill="#027A48" stroke="#027A48" strokeWidth="0.5"/>
<path d="M14.6701 18.5143C13.7471 18.5143 12.9967 19.2647 12.9967 20.1877C12.9967 21.1106 13.7471 21.8611 14.6701 21.8611C15.593 21.8611 16.3435 21.1106 16.3435 20.1877C16.3435 19.2647 15.593 18.5143 14.6701 18.5143ZM15.1318 20.6628C15.0105 20.7897 14.8453 20.8653 14.6701 20.8743C14.4949 20.8653 14.3297 20.7897 14.2084 20.6628C14.0861 20.5349 14.0178 20.3647 14.0178 20.1877C14.0178 20.0106 14.0861 19.8405 14.2084 19.7125C14.3297 19.5857 14.4949 19.5101 14.6701 19.5011C14.8453 19.5101 15.0105 19.5857 15.1318 19.7125C15.2541 19.8405 15.3224 20.0106 15.3224 20.1877C15.3224 20.3647 15.2541 20.5349 15.1318 20.6628Z" fill="#027A48" stroke="#027A48" strokeWidth="0.2"/>
</svg>
