<svg width="27" height="27" viewBox="0 0 27 27" fill="none" xmlns="http://www.w3.org/2000/svg">
<path d="M13.5 0.90625C9.89625 0.90625 6.49917 2.495 4.13542 5.11708V3.16667C4.13542 2.63708 3.69625 2.19792 3.16667 2.19792C2.63708 2.19792 2.19792 2.63708 2.19792 3.16667V8.33333C2.19792 8.86292 2.63708 9.30208 3.16667 9.30208H7.04167C7.57125 9.30208 8.01042 8.86292 8.01042 8.33333C8.01042 7.80375 7.57125 7.36458 7.04167 7.36458H4.82C6.80917 4.56167 10.0512 2.84375 13.5 2.84375C19.3771 2.84375 24.1562 7.62292 24.1562 13.5C24.1562 19.3771 19.3771 24.1562 13.5 24.1562C7.62292 24.1562 2.84375 19.3771 2.84375 13.5C2.84375 12.9704 2.40458 12.5312 1.875 12.5312C1.34542 12.5312 0.90625 12.9704 0.90625 13.5C0.90625 20.4492 6.55083 26.0938 13.5 26.0938C20.4492 26.0938 26.0938 20.4492 26.0938 13.5C26.0938 6.55083 20.4492 0.90625 13.5 0.90625Z" fill="#B54708"/>
<path d="M13.5 7.36426C12.9704 7.36426 12.5312 7.80342 12.5312 8.33301V13.4997C12.5312 13.8226 12.6992 14.1197 12.9575 14.3005L16.8325 16.8838C17.0004 17.0001 17.1812 17.0518 17.375 17.0518C17.685 17.0518 17.995 16.8968 18.1887 16.6255C18.4858 16.1863 18.3696 15.5793 17.9175 15.2822L14.4688 12.983V8.33301C14.4688 7.80342 14.0296 7.36426 13.5 7.36426Z" fill="#B54708"/>
</svg>
