<svg width="20" height="20" viewBox="0 0 20 20" fill="none" xmlns="http://www.w3.org/2000/svg">
<path d="M18.211 1.7988C18.0511 1.63329 17.7874 1.62871 17.6219 1.78857L15.5779 3.83254C15.0825 3.3854 14.5477 2.98374 13.9594 2.66656C10.2757 0.680276 5.77071 1.75404 3.33312 5.00329V2.9165C3.33312 2.6864 3.14656 2.49984 2.91645 2.49984C2.68635 2.49984 2.49979 2.6864 2.49979 2.9165V6.24984C2.49979 6.24963 2.49979 6.24999 2.49979 6.24984C2.49994 6.47979 2.68645 6.66666 2.91645 6.6665H6.24979C6.47989 6.6665 6.66645 6.47994 6.66645 6.24984C6.66645 6.01973 6.47989 5.83317 6.24979 5.83317H3.774C4.04296 5.43298 4.33557 5.04943 4.67691 4.70727C7.50894 1.86853 12.0413 1.77555 14.9952 4.41527L4.414 14.9964C3.18379 13.6267 2.49363 11.8507 2.49979 9.99984C2.49943 9.60382 2.53102 9.20836 2.59424 8.81743C2.63152 8.59043 2.47776 8.3762 2.25081 8.33892C2.02381 8.30158 1.80958 8.45534 1.7723 8.68234C1.36987 11.1831 2.13978 13.7143 3.82847 15.582L1.78852 17.6219C1.7104 17.7 1.6665 17.806 1.6665 17.9165C1.66645 18.1466 1.85302 18.3331 2.08312 18.3332C2.19364 18.3333 2.29964 18.2893 2.37767 18.211L18.211 2.37771C18.367 2.21628 18.367 1.96028 18.211 1.7988ZM17.0831 13.3332H13.7498C13.5197 13.3332 13.3331 13.5197 13.3331 13.7498C13.3331 13.9799 13.5197 14.1665 13.7498 14.1665H16.2394C14.0833 17.3893 9.78133 18.4695 6.33768 16.5452C6.13779 16.4336 5.88525 16.5043 5.77229 16.7034C5.65881 16.9035 5.72905 17.1577 5.92915 17.2712C7.17274 17.9678 8.57436 18.3335 9.99979 18.3332C12.6464 18.3343 15.1042 17.0778 16.6665 15.0011V17.0832C16.6665 17.083 16.6665 17.0833 16.6665 17.0832C16.6666 17.3132 16.8531 17.5 17.0831 17.4998C17.0829 17.4998 17.0833 17.4998 17.0831 17.4998C17.3131 17.4997 17.4999 17.3132 17.4998 17.0832V13.7498C17.4998 13.7497 17.4998 13.75 17.4998 13.7498C17.4996 13.5199 17.3131 13.333 17.0831 13.3332ZM17.2711 5.9292C17.1582 5.73002 16.9056 5.65937 16.7057 5.77102C16.5049 5.88317 16.433 6.13692 16.5452 6.33773C17.1714 7.4567 17.5 8.71759 17.4998 9.99984C17.5001 10.3959 17.4686 10.7913 17.4054 11.1823C17.4053 11.183 17.4052 11.1836 17.4051 11.1842C17.3684 11.4108 17.5223 11.6241 17.7489 11.6608C17.7714 11.6647 17.7943 11.6666 17.8172 11.6665C18.0209 11.6662 18.1945 11.5184 18.2273 11.3173C18.2979 10.8817 18.3333 10.4411 18.3331 9.99984C18.3335 8.57441 17.9678 7.17279 17.2711 5.9292Z" fill="#5C068C"/>
</svg>
