<svg width="16" height="16" viewBox="0 0 16 16" fill="none" xmlns="http://www.w3.org/2000/svg">
<mask id="path-1-inside-1_819_95988" fill="white">
<path d="M14.5 7C14.3674 7 14.2402 7.05268 14.1464 7.14645C14.0527 7.24021 14 7.36739 14 7.5V14.5C14 14.6326 13.9473 14.7598 13.8536 14.8536C13.7598 14.9473 13.6326 15 13.5 15H5.5C5.36739 15 5.24022 14.9473 5.14645 14.8536C5.05268 14.7598 5 14.6326 5 14.5V3.5C5 3.36739 5.05268 3.24021 5.14645 3.14645C5.24022 3.05268 5.36739 3 5.5 3H11V5.5C11 5.63261 11.0527 5.75979 11.1464 5.85355C11.2402 5.94732 11.3674 6 11.5 6H14.5C14.5993 6.00058 14.6965 5.97157 14.7793 5.91667C14.8621 5.86177 14.9266 5.78346 14.9647 5.69174C15.0028 5.60002 15.0127 5.49903 14.9931 5.40166C14.9736 5.30429 14.9255 5.21494 14.855 5.145L12 2.295V1.5C12 1.10218 11.842 0.720644 11.5607 0.43934C11.2794 0.158035 10.8978 0 10.5 0L2.5 0C2.10218 0 1.72064 0.158035 1.43934 0.43934C1.15804 0.720644 1 1.10218 1 1.5V12.5C1 12.8978 1.15804 13.2794 1.43934 13.5607C1.72064 13.842 2.10218 14 2.5 14H4V14.5C4 14.8978 4.15804 15.2794 4.43934 15.5607C4.72064 15.842 5.10218 16 5.5 16H13.5C13.8978 16 14.2794 15.842 14.5607 15.5607C14.842 15.2794 15 14.8978 15 14.5V7.5C15 7.36739 14.9473 7.24021 14.8536 7.14645C14.7598 7.05268 14.6326 7 14.5 7ZM12 5V3.705L13.295 5H12ZM2.5 13C2.36739 13 2.24022 12.9473 2.14645 12.8536C2.05268 12.7598 2 12.6326 2 12.5V1.5C2 1.36739 2.05268 1.24021 2.14645 1.14645C2.24022 1.05268 2.36739 1 2.5 1H10.5C10.6326 1 10.7598 1.05268 10.8536 1.14645C10.9473 1.24021 11 1.36739 11 1.5V2H5.5C5.10218 2 4.72064 2.15804 4.43934 2.43934C4.15804 2.72064 4 3.10218 4 3.5V13H2.5Z"/>
</mask>
<path d="M14.5 7C14.3674 7 14.2402 7.05268 14.1464 7.14645C14.0527 7.24021 14 7.36739 14 7.5V14.5C14 14.6326 13.9473 14.7598 13.8536 14.8536C13.7598 14.9473 13.6326 15 13.5 15H5.5C5.36739 15 5.24022 14.9473 5.14645 14.8536C5.05268 14.7598 5 14.6326 5 14.5V3.5C5 3.36739 5.05268 3.24021 5.14645 3.14645C5.24022 3.05268 5.36739 3 5.5 3H11V5.5C11 5.63261 11.0527 5.75979 11.1464 5.85355C11.2402 5.94732 11.3674 6 11.5 6H14.5C14.5993 6.00058 14.6965 5.97157 14.7793 5.91667C14.8621 5.86177 14.9266 5.78346 14.9647 5.69174C15.0028 5.60002 15.0127 5.49903 14.9931 5.40166C14.9736 5.30429 14.9255 5.21494 14.855 5.145L12 2.295V1.5C12 1.10218 11.842 0.720644 11.5607 0.43934C11.2794 0.158035 10.8978 0 10.5 0L2.5 0C2.10218 0 1.72064 0.158035 1.43934 0.43934C1.15804 0.720644 1 1.10218 1 1.5V12.5C1 12.8978 1.15804 13.2794 1.43934 13.5607C1.72064 13.842 2.10218 14 2.5 14H4V14.5C4 14.8978 4.15804 15.2794 4.43934 15.5607C4.72064 15.842 5.10218 16 5.5 16H13.5C13.8978 16 14.2794 15.842 14.5607 15.5607C14.842 15.2794 15 14.8978 15 14.5V7.5C15 7.36739 14.9473 7.24021 14.8536 7.14645C14.7598 7.05268 14.6326 7 14.5 7ZM12 5V3.705L13.295 5H12ZM2.5 13C2.36739 13 2.24022 12.9473 2.14645 12.8536C2.05268 12.7598 2 12.6326 2 12.5V1.5C2 1.36739 2.05268 1.24021 2.14645 1.14645C2.24022 1.05268 2.36739 1 2.5 1H10.5C10.6326 1 10.7598 1.05268 10.8536 1.14645C10.9473 1.24021 11 1.36739 11 1.5V2H5.5C5.10218 2 4.72064 2.15804 4.43934 2.43934C4.15804 2.72064 4 3.10218 4 3.5V13H2.5Z" fill="#1D2939"/>
<path d="M5.5 3V5V3ZM11 3H13V1H11V3ZM14.5 6L14.5116 4H14.5V6ZM14.855 5.145L13.442 6.56046L13.4466 6.56503L14.855 5.145ZM12 2.295H10V3.12445L10.587 3.71045L12 2.295ZM12 1.5H14H12ZM2.5 0L2.5 -2L2.5 0ZM1 1.5H-1H1ZM1 12.5H-1H1ZM4 14H6V12H4V14ZM5.5 16V18V16ZM13.5 16V18V16ZM15 14.5H17H15ZM12 5H10V7H12V5ZM12 3.705L13.4142 2.29079L10 -1.12343V3.705H12ZM13.295 5V7H18.1234L14.7092 3.58579L13.295 5ZM2.5 1L2.5 -1L2.5 1ZM10.5 1V-1V1ZM11 2V4H13V2H11ZM4 13V15H6V13H4ZM14.5 5C13.837 5 13.2011 5.26339 12.7322 5.73223L15.5607 8.56066C15.2794 8.84197 14.8978 9 14.5 9V5ZM12.7322 5.73223C12.2634 6.20108 12 6.83696 12 7.5H16C16 7.89782 15.842 8.27935 15.5607 8.56066L12.7322 5.73223ZM12 7.5V14.5H16V7.5H12ZM12 14.5C12 14.1022 12.158 13.7206 12.4393 13.4393L15.2678 16.2678C15.7366 15.7989 16 15.163 16 14.5H12ZM12.4393 13.4393C12.7207 13.158 13.1022 13 13.5 13V17C14.163 17 14.7989 16.7366 15.2678 16.2678L12.4393 13.4393ZM13.5 13H5.5V17H13.5V13ZM5.5 13C5.89782 13 6.27935 13.158 6.56066 13.4393L3.73223 16.2678C4.20108 16.7366 4.83696 17 5.5 17V13ZM6.56066 13.4393C6.84197 13.7206 7 14.1022 7 14.5H3C3 15.163 3.26339 15.7989 3.73223 16.2678L6.56066 13.4393ZM7 14.5V3.5H3V14.5H7ZM7 3.5C7 3.89783 6.84196 4.27936 6.56066 4.56066L3.73223 1.73223C3.26339 2.20107 3 2.83696 3 3.5H7ZM6.56066 4.56066C6.27936 4.84196 5.89783 5 5.5 5V1C4.83696 1 4.20107 1.26339 3.73223 1.73223L6.56066 4.56066ZM5.5 5H11V1H5.5V5ZM9 3V5.5H13V3H9ZM9 5.5C9 6.16304 9.26339 6.79892 9.73223 7.26777L12.5607 4.43934C12.842 4.72065 13 5.10218 13 5.5H9ZM9.73223 7.26777C10.2011 7.73661 10.837 8 11.5 8V4C11.8978 4 12.2794 4.15803 12.5607 4.43934L9.73223 7.26777ZM11.5 8H14.5V4H11.5V8ZM14.4884 7.99997C14.9849 8.00285 15.4711 7.8578 15.8849 7.5833L13.6737 4.25004C13.922 4.08533 14.2137 3.9983 14.5116 4.00003L14.4884 7.99997ZM15.8849 7.5833C16.2987 7.3088 16.6214 6.91728 16.8118 6.45867L13.1176 4.92481C13.2318 4.64964 13.4254 4.41473 13.6737 4.25004L15.8849 7.5833ZM16.8118 6.45867C17.0022 6.00007 17.0517 5.49514 16.9541 5.00826L13.0322 5.79505C12.9736 5.50293 13.0033 5.19997 13.1176 4.92481L16.8118 6.45867ZM16.9541 5.00826C16.8564 4.52138 16.6159 4.07463 16.2634 3.72497L13.4466 6.56503C13.2351 6.35524 13.0908 6.08719 13.0322 5.79505L16.9541 5.00826ZM16.268 3.72955L13.413 0.879548L10.587 3.71045L13.442 6.56045L16.268 3.72955ZM14 2.295V1.5H10V2.295H14ZM14 1.5C14 0.571743 13.6313 -0.318496 12.9749 -0.974874L10.1464 1.85355C10.0527 1.75978 10 1.63261 10 1.5H14ZM12.9749 -0.974874C12.3185 -1.63125 11.4283 -2 10.5 -2V2C10.3674 2 10.2402 1.94732 10.1464 1.85355L12.9749 -0.974874ZM10.5 -2H2.5V2H10.5V-2ZM2.5 -2C1.57174 -2 0.681504 -1.63125 0.0251265 -0.974874L2.85355 1.85355C2.75979 1.94732 2.63261 2 2.5 2L2.5 -2ZM0.0251265 -0.974874C-0.631251 -0.318497 -1 0.571742 -1 1.5H3C3 1.63261 2.94732 1.75979 2.85355 1.85355L0.0251265 -0.974874ZM-1 1.5V12.5H3V1.5H-1ZM-1 12.5C-1 13.4283 -0.631251 14.3185 0.0251265 14.9749L2.85355 12.1464C2.94732 12.2402 3 12.3674 3 12.5H-1ZM0.0251265 14.9749C0.681504 15.6313 1.57174 16 2.5 16V12C2.63261 12 2.75978 12.0527 2.85355 12.1464L0.0251265 14.9749ZM2.5 16H4V12H2.5V16ZM2 14V14.5H6V14H2ZM2 14.5C2 15.4283 2.36875 16.3185 3.02513 16.9749L5.85355 14.1464C5.94732 14.2402 6 14.3674 6 14.5H2ZM3.02513 16.9749C3.6815 17.6313 4.57174 18 5.5 18V14C5.63261 14 5.75978 14.0527 5.85355 14.1464L3.02513 16.9749ZM5.5 18H13.5V14H5.5V18ZM13.5 18C14.4283 18 15.3185 17.6313 15.9749 16.9749L13.1464 14.1464C13.2402 14.0527 13.3674 14 13.5 14V18ZM15.9749 16.9749C16.6313 16.3185 17 15.4283 17 14.5H13C13 14.3674 13.0527 14.2402 13.1464 14.1464L15.9749 16.9749ZM17 14.5V7.5H13V14.5H17ZM17 7.5C17 6.83696 16.7366 6.20108 16.2678 5.73223L13.4393 8.56066C13.158 8.27935 13 7.89782 13 7.5H17ZM16.2678 5.73223C15.7989 5.26339 15.163 5 14.5 5V9C14.1022 9 13.7206 8.84197 13.4393 8.56066L16.2678 5.73223ZM14 5V3.705H10V5H14ZM10.5858 5.11921L11.8808 6.41421L14.7092 3.58579L13.4142 2.29079L10.5858 5.11921ZM13.295 3H12V7H13.295V3ZM2.5 11C2.89782 11 3.27935 11.158 3.56066 11.4393L0.732233 14.2678C1.20108 14.7366 1.83696 15 2.5 15V11ZM3.56066 11.4393C3.84197 11.7206 4 12.1022 4 12.5H1.19209e-07C1.19209e-07 13.163 0.263392 13.7989 0.732233 14.2678L3.56066 11.4393ZM4 12.5V1.5H1.19209e-07V12.5H4ZM4 1.5C4 1.89783 3.84196 2.27936 3.56066 2.56066L0.732233 -0.267767C0.263393 0.201073 1.19209e-07 0.836958 1.19209e-07 1.5H4ZM3.56066 2.56066C3.27936 2.84196 2.89783 3 2.5 3L2.5 -1C1.83696 -1 1.20107 -0.736608 0.732233 -0.267767L3.56066 2.56066ZM2.5 3H10.5V-1H2.5V3ZM10.5 3C10.1022 3 9.72065 2.84197 9.43934 2.56066L12.2678 -0.267767C11.7989 -0.736609 11.163 -1 10.5 -1V3ZM9.43934 2.56066C9.15803 2.27935 9 1.89782 9 1.5H13C13 0.836963 12.7366 0.201077 12.2678 -0.267767L9.43934 2.56066ZM9 1.5V2H13V1.5H9ZM11 0H5.5V4H11V0ZM5.5 0C4.57174 0 3.6815 0.368749 3.02513 1.02513L5.85355 3.85355C5.75979 3.94732 5.63261 4 5.5 4V0ZM3.02513 1.02513C2.36875 1.6815 2 2.57174 2 3.5H6C6 3.63261 5.94732 3.75978 5.85355 3.85355L3.02513 1.02513ZM2 3.5V13H6V3.5H2ZM4 11H2.5V15H4V11Z" fill="#5C068C" mask="url(#path-1-inside-1_819_95988)"/>
<path d="M9.5 7C8.80777 7 8.13108 7.20527 7.55551 7.58986C6.97993 7.97444 6.53133 8.52107 6.26642 9.16061C6.00152 9.80015 5.9322 10.5039 6.06725 11.1828C6.2023 11.8618 6.53564 12.4854 7.02513 12.9749C7.51461 13.4644 8.13825 13.7977 8.81718 13.9327C9.49612 14.0678 10.1999 13.9985 10.8394 13.7336C11.4789 13.4687 12.0256 13.0201 12.4101 12.4445C12.7947 11.8689 13 11.1922 13 10.5C13 9.57174 12.6313 8.6815 11.9749 8.02513C11.3185 7.36875 10.4283 7 9.5 7ZM11.585 11.875L10 10.295V8.05C10.4002 8.13208 10.7742 8.311 11.0893 8.5711C11.4044 8.8312 11.6509 9.16455 11.8073 9.54199C11.9637 9.91943 12.0252 10.3294 11.9865 10.7362C11.9477 11.1429 11.8099 11.5339 11.585 11.875ZM7 10.5C6.99988 9.92367 7.19889 9.36501 7.56335 8.91855C7.9278 8.47209 8.43532 8.16527 9 8.05V10.5C8.99962 10.5658 9.01223 10.631 9.03712 10.692C9.062 10.7529 9.09866 10.8083 9.145 10.855L10.875 12.585C10.4983 12.8331 10.0615 12.9746 9.61088 12.9946C9.16027 13.0146 8.71264 12.9124 8.31543 12.6986C7.91822 12.4849 7.58623 12.1677 7.35465 11.7806C7.12307 11.3936 7.00053 10.9511 7 10.5Z" fill="#5C068C"/>
</svg>
