<svg width="91" height="99" viewBox="0 0 91 99" fill="none" xmlns="http://www.w3.org/2000/svg">
<path d="M44.9031 3.19667C45.5257 2.41757 46.2967 1.76971 47.1714 1.29058C48.0461 0.811448 49.0072 0.51057 49.9989 0.405362C50.9907 0.300153 51.9935 0.392702 52.9492 0.677652C53.905 0.962602 54.7948 1.43429 55.567 2.06542L80.1679 22.1564C81.5208 23.2611 82.4484 24.801 82.7922 26.5134C83.1361 28.2258 82.8749 30.0045 82.0533 31.5458C79.9025 30.8885 77.6657 30.5555 75.4167 30.5578H73.1542L75.4016 27.9937L62.445 17.4127L51.7585 30.5654H42.0372L56.6002 12.6464L50.7931 7.90267L32.7082 30.5578H23.0549L44.9031 3.19667ZM64.1042 68.2662C63.1041 68.2662 62.145 68.6635 61.4378 69.3706C60.7306 70.0778 60.3333 71.0369 60.3333 72.037C60.3333 73.0371 60.7306 73.9962 61.4378 74.7034C62.145 75.4106 63.1041 75.8078 64.1042 75.8078H71.6458C72.6459 75.8078 73.605 75.4106 74.3122 74.7034C75.0194 73.9962 75.4167 73.0371 75.4167 72.037C75.4167 71.0369 75.0194 70.0778 74.3122 69.3706C73.605 68.6635 72.6459 68.2662 71.6458 68.2662H64.1042ZM7.54167 34.3287C7.54167 33.3286 7.93895 32.3695 8.64612 31.6623C9.35329 30.9551 10.3124 30.5578 11.3125 30.5578H15.5208L21.5164 23.0162H11.3125C8.31224 23.0162 5.43486 24.208 3.31335 26.3295C1.19185 28.451 0 31.3284 0 34.3287V79.5787C0 84.5791 1.98642 89.3747 5.52226 92.9106C9.0581 96.4464 13.8537 98.4328 18.8542 98.4328H75.4167C79.417 98.4328 83.2535 96.8437 86.0822 94.015C88.9109 91.1864 90.5 87.3499 90.5 83.3495V53.1828C90.5 49.1825 88.9109 45.346 86.0822 42.5173C83.2535 39.6886 79.417 38.0995 75.4167 38.0995H11.3125C10.3124 38.0995 9.35329 37.7022 8.64612 36.9951C7.93895 36.2879 7.54167 35.3288 7.54167 34.3287ZM7.54167 79.5787V45.0001C8.71817 45.4149 9.99271 45.6412 11.3125 45.6412H75.4167C77.4168 45.6412 79.3351 46.4357 80.7494 47.8501C82.1638 49.2644 82.9583 51.1827 82.9583 53.1828V83.3495C82.9583 85.3497 82.1638 87.2679 80.7494 88.6823C79.3351 90.0966 77.4168 90.8912 75.4167 90.8912H18.8542C15.8539 90.8912 12.9765 89.6993 10.855 87.5778C8.73352 85.4563 7.54167 82.5789 7.54167 79.5787Z" fill="#F9EEFF"/>
</svg>
